<?xml version="1.0" encoding="UTF-8" standalone="no"?>
<svg xmlns="http://www.w3.org/2000/svg" version="1.1" preserveAspectRatio="xMidYMid meet" viewBox="0 0 333.61749 333.61874">
 <g fill="#fff" transform="matrix(1.25,0,0,-1.25,-794.441,484.30912)">
  <g transform="translate(887.7168,387.4473)">
   <path d="m 0,0 -237.434,0 c -8.136,0 -14.73,-6.594 -14.73,-14.73 l 0,-237.434 c 0,-8.135 6.594,-14.731 14.73,-14.731 l 127.827,0 0,103.356 -34.782,0 0,40.28 34.782,0 0,29.705 c 0,34.472 21.054,53.243 51.806,53.243 14.731,0 27.391,-1.096 31.08,-1.586 l 0,-36.026 -21.328,-0.01 c -16.724,0 -19.963,-7.947 -19.963,-19.609 l 0,-25.717 39.887,0 -5.193,-40.28 -34.694,0 0,-103.356 68.012,0 c 8.135,0 14.73,6.596 14.73,14.731 l 0,237.434 C 14.73,-6.594 8.135,0 0,0" />
  </g>
 </g>
</svg>