<?xml version="1.0" encoding="UTF-8" standalone="no"?>
<svg xmlns="http://www.w3.org/2000/svg" version="1.1" viewBox="0 0 136.88943 191.06973" preserveAspectRatio="xMidYMid meet">
 <g fill="#fff" transform="matrix(1.25,0,0,-1.25,-68.75,259.82)">
  <g transform="scale(0.1,0.1)">
   <path d="m 1462.69,1857.91 -34.22,-178.35 c -4.09,-19.28 -28.36,-39.56 -50.87,-39.56 -22.5,0 -317.6,0 -317.6,0 -35.73,0 -61.309,-24.36 -61.309,-60.06 l 0,-38.89 c 0,-35.73 25.729,-61.05 61.489,-61.05 0,0 244.24,0 269.45,0 25.23,0 50,-27.67 44.54,-54.61 -5.48,-26.98 -31.09,-160.64 -34.17,-175.39 -3.09,-14.77 -20,-40 -50,-40 -25.28,0 -219.94,0 -219.94,0 -40.06,0 -52.17,-5.23 -78.966,-38.54 -26.817,-33.33 -267.813,-322.741 -267.813,-322.741 -2.441,-2.797 -4.824,-1.989 -4.824,1.07 l 0,1010.771 c 0,22.8 19.824,49.55 49.551,49.55 0,0 628.712,0 654.242,0 24.08,0 46.58,-22.63 40.44,-52.2 z m 28.72,-699.34 c 9.1,36.81 111.19,559.44 145.28,725.25 m -125.85,194.74 c 0,0 -702.766,0 -815.254,0 -112.512,0 -145.586,-84.6 -145.586,-137.88 0,-53.32 0,-1295.328 0,-1295.328 0,-60.02 32.258,-82.282 50.371,-89.622 18.137,-7.351 68.152,-13.539 98.125,21.051 0,0 384.894,446.609 391.504,453.219 10,10 10,10 20,10 20,0 168.35,0 249.02,0 104.64,0 121.46,74.62 132.39,118.57 9.1,36.81 111.19,559.44 145.28,725.25 26.02,126.53 -6.13,194.74 -125.85,194.74" />
  </g>
 </g>
</svg>