<?xml version="1.0" encoding="UTF-8" standalone="no"?>
<svg xmlns="http://www.w3.org/2000/svg" version="1.1" preserveAspectRatio="xMidYMid meet" viewBox="0 0 126.25 123.4375">
 <path fill="#fff" d="M 3.9374956,0 C 1.7604958,0 -4.3781828e-6,1.7937502 -4.3781828e-6,3.96875 l 0,115.53125 c 0,2.179 1.7605001781828,3.9375 3.9374999781828,3.9375 l 118.3437544,0 c 2.177,0 3.96875,-1.7595 3.96875,-3.9375 l 0,-115.53125 C 126.25,1.7927502 124.45725,0 122.28125,0 L 3.9374956,0 z m 52.2500004,19.25 21.78125,0 -7.1875,4.53125 -6.84375,0 c 2.54,2.102 7.84375,6.5145 7.84375,14.9375 0,8.191 -4.64125,12.098 -9.28125,15.75 -1.44,1.437 -3.09375,2.9965 -3.09375,5.4375 0,2.431 1.662,3.744 2.875,4.75 l 3.96875,3.09375 c 4.865,4.098 9.28225,7.88025 9.28125,15.53125 0,10.413 -10.052501,20.90625 -29.0625,20.90625 -16.031,0 -23.75,-7.64175 -23.75,-15.84375 0,-3.985 1.977,-9.621 8.5,-13.5 6.849,-4.21 16.148,-4.75175 21.125,-5.09375 -1.554,-1.993 -3.3125,-4.10025 -3.3125,-7.53125 0,-1.881 0.54675,-2.9815 1.09375,-4.3125 -1.218,0.113 -2.42525,0.21875 -3.53125,0.21875 -11.713,0 -18.34375,-8.76725 -18.34375,-17.40625 0,-5.089 2.3105,-10.74375 7.0625,-14.84375 6.305,-5.205 14.899,-6.625 20.875,-6.625 z m -8.0625,4.1875 c -2.883,0 -5.94575,1.43825 -7.71875,3.65625 -1.881,2.329 -2.4375,5.33075 -2.4375,8.21875 0,7.418 4.3025,19.6875 13.8125,19.6875 2.762,0 5.722,-1.31975 7.5,-3.09375 2.542,-2.557 2.78125,-6.09775 2.78125,-8.09375 0,-7.978 -4.7695,-20.375 -13.9375,-20.375 z m 40.59375,20.34375 5.46875,0 0,11.0625 11.093754,0 0,5.53125 -11.093754,0 0,11.15625 -5.46875,0 0,-11.15625 -11.0625,0 0,-5.53125 11.0625,0 0,-11.0625 z m -35.15625,29.0625 c -0.996,0 -6.985,0.22025 -11.625,1.78125 -2.433,0.881 -9.5,3.54225 -9.5,11.40625 0,7.866 7.6115,13.53125 19.4375,13.53125 10.614,0 16.28125,-5.10975 16.28125,-11.96875 0,-5.664 -3.6555,-8.642 -12.0625,-14.625 -0.88,-0.111 -1.42625,-0.125 -2.53125,-0.125 z" />
</svg>