<?xml version="1.0" encoding="UTF-8" standalone="no"?>
<svg xmlns="http://www.w3.org/2000/svg" version="1.1" preserveAspectRatio="xMidYMid meet" viewBox="0 0 518.6875 518.6875">
 <g fill="#fff" transform="matrix(1.25,0,0,-1.25,0,518.7)">
  <path d="M 79.9375,0 C 35.795875,0 0,35.79625 0,79.9375 l 0,358.84375 c 0,44.14162 35.795875,79.90625 79.9375,79.90625 l 358.84375,0 c 44.14125,0 79.90625,-35.76462 79.90625,-79.90625 l 0,-358.84375 C 518.6875,35.79625 482.9225,0 438.78125,0 L 79.9375,0 z m 165.09375,161.4375 c 2.28129,0.003 4.58797,0.0383 6.96875,0.0625 14.83875,0.15125 19.13625,1.06875 24.9375,2.46875 17.485,4.22125 11.53125,20.5125 11.53125,59.625 0,12.52125 -2.2575,30.15875 6.78125,36 3.885,2.51 13.38875,0.3575 37.15625,-40 C 343.66875,200.465 352.125,178 352.125,178 c 0,0 1.85,-4.03375 4.71875,-5.75 2.9325,-1.755 6.90625,-1.21875 6.90625,-1.21875 l 53.375,-0.3125 c 0,0 16.03,-1.9275 18.625,5.3125 2.72375,7.59875 -6.00625,25.3425 -27.8125,54.40625 -35.80625,47.72375 -39.79,43.25375 -10.0625,70.84375 28.39875,26.36 34.2875,39.22 35.25,40.8125 11.75875,19.4975 -13.03125,21 -13.03125,21 l -47.40625,0.6875 c 0,0 -10.1875,1.9875 -23.59375,-7.21875 -17.7275,-12.17 -34.44,-43.78875 -47.46875,-39.65625 -13.21125,4.1925 -12.8125,32.65625 -12.8125,32.65625 0,0 0.105,6.0725 -2.90625,9.3125 -3.27625,3.525 -9.6875,4.21875 -9.6875,4.21875 l -21.21875,0 c 0,0 -46.82875,2.83625 -88.0625,-40.09375 -44.96462,-46.8175 -84.65625,-139.71875 -84.65625,-139.71875 0,0 -2.301375,-6.08375 0.1875,-9.03125 2.796875,-3.31125 10.40625,-3.53125 10.40625,-3.53125 l 50.71875,-0.34375 c 0,0 4.79875,0.8 8.21875,3.3125 2.82,2.07375 4.40625,5.9375 4.40625,5.9375 0,0 8.17625,20.745 19.03125,39.5 21.19,36.615 31.05625,44.61 38.25,40.6875 10.48375,-5.7175 7.34375,-51.75 7.34375,-51.75 0,0 0.19,-16.7125 -5.28125,-24.15625 -4.235,-5.7625 -12.22125,-7.43625 -15.75,-7.90625 -2.855,-0.38125 1.83375,-6.995 7.90625,-9.96875 7.98656,-3.91234 21.34346,-4.61409 37.3125,-4.59375 z" transform="matrix(0.8,0,0,-0.8,0,414.96)" />
 </g>
</svg>